<?xml version="1.0" encoding="utf-8"?>
<!-- Generator: Adobe Illustrator 24.0.1, SVG Export Plug-In . SVG Version: 6.00 Build 0)  -->
<svg version="1.1" xmlns="http://www.w3.org/2000/svg" xmlns:xlink="http://www.w3.org/1999/xlink" x="0px" y="0px"
	 viewBox="0 0 435 227" style="enable-background:new 0 0 435 227;" xml:space="preserve">
<style type="text/css">
	.st0{fill-rule:evenodd;clip-rule:evenodd;}
	.st1{fill-rule:evenodd;clip-rule:evenodd;fill:#790000;}
</style>
<g id="_x35_3">
	<path class="st0" d="M253.92,8.84l5.28,0.93l-5.12,29.02c-1.75-0.33-3.51-0.64-5.28-0.92L253.92,8.84L253.92,8.84z M336.06,36.15
		l-9.82-5.66l-22.71,39.33l9.82,5.68L336.06,36.15L336.06,36.15z M181.4,8.84l-5.27,0.93l5.12,29.02c1.76-0.32,3.51-0.63,5.28-0.92
		L181.4,8.84L181.4,8.84z M143.58,18.5l-5.04,1.83L148.62,48c1.66-0.63,3.34-1.24,5.03-1.83L143.58,18.5L143.58,18.5z M363.72,60.02
		l-4.14-3.47l-18.98,22.64c1.39,1.14,2.77,2.3,4.14,3.47L363.72,60.02L363.72,60.02z M390.99,87.97l-3.48-4.15l-22.62,19
		c1.17,1.35,2.33,2.73,3.46,4.14L390.99,87.97L390.99,87.97z M209.02-0.06h17.29V51.3h-17.29V-0.06L209.02-0.06z M412.48,107.43
		l8.64,14.98l-44.48,25.67l-8.65-14.97L412.48,107.43L412.48,107.43z M22.85,107.43L14.2,122.4l44.48,25.67l8.65-14.97L22.85,107.43
		L22.85,107.43z M109.08,30.49l-9.82,5.67l22.7,39.33l9.82-5.68L109.08,30.49L109.08,30.49z M291.75,18.5l5.03,1.83l-10.07,27.69
		c-1.67-0.64-3.35-1.25-5.03-1.84L291.75,18.5L291.75,18.5z M71.6,60.02l4.14-3.47l19,22.64c-1.39,1.14-2.77,2.3-4.14,3.47
		L71.6,60.02L71.6,60.02z M44.33,87.97l3.47-4.15l22.64,19c-1.18,1.37-2.34,2.75-3.47,4.14L44.33,87.97z"/>
	<path d="M203.26,126.98l27.55-38.72h3.93l-27.54,38.72H203.26L203.26,126.98z M205.84,107.22h3.63v-18.8h-2.7
		c-0.78,1.02-1.81,1.97-3.07,2.85c-1.27,0.89-2.41,1.49-3.46,1.82v3.09c2.04-0.54,3.91-1.48,5.61-2.84V107.22L205.84,107.22z
		 M223.8,126.33h15.58v-3.03h-9.65c0.58-0.58,1.57-1.39,2.97-2.4c2.65-1.93,4.36-3.36,5.11-4.3c0.98-1.24,1.48-2.58,1.48-3.98
		c0-1.42-0.59-2.61-1.77-3.61c-1.18-0.98-3.02-1.47-5.54-1.47c-2.21,0-3.93,0.43-5.12,1.3c-1.2,0.88-2.05,2.26-2.53,4.12l3.78,0.37
		c0.35-1.09,0.8-1.84,1.34-2.23c0.54-0.39,1.37-0.59,2.46-0.59c1.16,0,2.02,0.25,2.6,0.77c0.57,0.51,0.86,1.17,0.86,1.96
		c0,0.72-0.3,1.42-0.92,2.11c-0.44,0.51-1.88,1.64-4.28,3.37c-2.4,1.74-4.12,3.34-5.15,4.78
		C224.31,124.45,223.9,125.39,223.8,126.33z"/>
	<polygon points="-0.17,226.59 -0.17,185.97 29.2,185.97 29.2,190.77 5.21,190.77 5.21,203.2 27.68,203.2 27.68,207.97 5.21,207.97 
		5.21,221.79 30.14,221.79 30.14,226.59 	"/>
	<polygon points="404.76,226.59 404.76,185.97 432.17,185.97 432.17,190.77 410.14,190.77 410.14,203.34 429.2,203.34 429.2,208.14 
		410.14,208.14 410.14,226.59 	"/>
	<path class="st1" d="M70.58,222.34h3.35v-32.49h-0.01l0,0h0.01c0.01-1.07,0.44-2.04,1.14-2.75c0.7-0.69,1.65-1.12,2.71-1.13l0.01,0
		h0.01H92h0.01v0c1.07,0,2.04,0.45,2.74,1.14c0.7,0.7,1.13,1.66,1.13,2.72l0.01,0.01v0h-0.01v11.56c0.39,0,0.77,0.01,1.15,0.04
		c2.55,0.18,4.93,0.94,5.8,3.22c0.86,2.28,0.98,4.64,1.09,7.01c0.08,1.66-0.33,6.26,1.88,6.89c1.56,0.27,2.05-1.5,2.24-2.57
		c0.66-3.83-0.36-9.53-0.82-11.63c-1.17-5.35,0.37-11.59-7.45-13.25l0.29-1.42c8.32,1.92,8.85,5.5,9.51,10.33
		c0.16,1.15,0.33,2.37,0.61,3.7c0.5,2.29,1.27,8.61,0.53,12.86c-0.16,0.9-0.38,1.73-0.69,2.44c-0.93,2.13-2.78,3.11-5.04,2.46
		c-4.05-1.15-3.91-6.26-4.08-9.66c-0.1-2.12-0.2-4.23-0.9-6.07c-0.32-0.86-1.68-1.18-3.17-1.28c-0.31-0.02-0.63-0.03-0.95-0.04v17.9
		h3.35v4.25h-7.21H77.8h-7.22V222.34L70.58,222.34z M78.16,222.34h13.49v-17.15H78.16V222.34L78.16,222.34z M78.16,200.94h13.49
		v-10.73H78.16V200.94z"/>
</g>
<g id="Layer_1">
</g>
</svg>
